<?xml version="1.0" standalone="no"?>
<!DOCTYPE svg PUBLIC "-//W3C//DTD SVG 1.1//EN" "http://www.w3.org/Graphics/SVG/1.1/DTD/svg11.dtd">
<svg width="100%" height="100%" viewBox="0 0 140 120" version="1.1" xmlns="http://www.w3.org/2000/svg" xmlns:xlink="http://www.w3.org/1999/xlink" xml:space="preserve" style="fill-rule:evenodd;clip-rule:evenodd;stroke-linejoin:round;stroke-miterlimit:1.41421;">
    <g transform="matrix(2.0598,0,0,1.8739,-7.29793,-10.1863)">
        <path d="M20.184,61.766L28.348,61.766C28.812,61.766 29.188,61.395 29.188,60.93L29.188,54.184C29.188,53.719 28.812,53.344 28.348,53.344L20.184,53.344C19.719,53.344 19.344,53.719 19.344,54.184L19.344,60.93C19.344,61.395 19.719,61.766 20.184,61.766ZM21.023,55.023L27.516,55.023L27.516,60.09L21.023,60.09L21.023,55.023Z" style="fill:rgb(71,171,88);fill-rule:nonzero;"/>
        <path d="M71.004,34.68C69.438,31.125 60.02,28.539 56.629,27.719C56.719,27.383 56.781,27.039 56.781,26.672C56.781,24.793 55.512,23.219 53.789,22.723C54.773,19.336 57.215,9.961 54.93,6.844C53.832,5.344 51.465,5.344 50.367,6.844C48.082,9.965 50.52,19.34 51.508,22.723C49.789,23.219 48.516,24.793 48.516,26.672C48.516,27.039 48.578,27.383 48.664,27.719C45.273,28.547 35.863,31.125 34.293,34.68C33.918,35.531 33.969,36.41 34.441,37.227C34.977,38.156 35.848,38.648 36.949,38.648C40.855,38.648 47.477,32.082 49.801,29.656C50.141,29.98 50.535,30.246 50.969,30.438L50.969,67.582L38.117,67.582L38.117,49.18L43.109,49.18C43.812,49.18 44.438,48.738 44.68,48.082C44.926,47.422 44.734,46.684 44.199,46.223L25.363,30.098C24.734,29.559 23.812,29.559 23.18,30.098L4.34,46.223C3.805,46.68 3.617,47.422 3.859,48.082C4.102,48.738 4.73,49.18 5.434,49.18L10.426,49.18L10.426,67.605C10.426,68.535 11.176,69.281 12.105,69.281L36.449,69.281C36.492,69.281 36.523,69.266 36.566,69.262L62.805,69.262C63.266,69.262 63.641,68.887 63.641,68.422C63.641,67.957 63.266,67.582 62.805,67.582L54.328,67.582L54.328,30.438C54.766,30.242 55.156,29.977 55.496,29.652C57.82,32.086 64.445,38.648 68.348,38.648C69.449,38.648 70.32,38.156 70.855,37.227C71.324,36.406 71.375,35.531 71.004,34.68ZM24.266,33.582L38.566,45.824L9.969,45.824L24.266,33.582ZM34.762,49.18L34.762,65.93L13.773,65.93L13.773,49.18L34.762,49.18ZM51.723,7.828C51.957,7.512 52.238,7.371 52.652,7.371C53.059,7.371 53.348,7.512 53.578,7.828C54.918,9.656 53.906,15.766 52.652,20.555C51.395,15.766 50.387,9.66 51.723,7.828ZM36.953,36.973C36.449,36.973 36.133,36.797 35.898,36.387C35.691,36.031 35.672,35.719 35.832,35.355C36.746,33.285 42.535,31.109 47.301,29.801C44.246,32.82 39.477,36.973 36.953,36.973ZM52.652,29.129C51.871,29.129 51.188,28.762 50.738,28.191C50.727,28.078 50.727,27.961 50.672,27.863C50.605,27.746 50.492,27.68 50.383,27.609C50.262,27.32 50.195,27.008 50.195,26.672C50.195,25.488 51.043,24.496 52.16,24.27C52.301,24.367 52.473,24.43 52.652,24.43C52.832,24.43 53,24.371 53.141,24.27C54.258,24.496 55.102,25.488 55.102,26.672C55.102,27.004 55.035,27.316 54.918,27.609C54.812,27.68 54.703,27.75 54.633,27.863C54.574,27.961 54.578,28.078 54.562,28.191C54.109,28.754 53.426,29.129 52.652,29.129ZM69.402,36.387C69.168,36.793 68.852,36.973 68.348,36.973C65.824,36.973 61.055,32.82 57.996,29.801C62.762,31.109 68.555,33.285 69.469,35.355C69.629,35.719 69.605,36.031 69.402,36.387Z" style="fill:rgb(78,78,78);fill-rule:nonzero;"/>
    </g>
</svg>
