<?xml version="1.0" standalone="no"?>
<!DOCTYPE svg PUBLIC "-//W3C//DTD SVG 1.1//EN" "http://www.w3.org/Graphics/SVG/1.1/DTD/svg11.dtd">
<svg width="100%" height="100%" viewBox="0 0 120 120" version="1.1" xmlns="http://www.w3.org/2000/svg" xmlns:xlink="http://www.w3.org/1999/xlink" xml:space="preserve" style="fill-rule:evenodd;clip-rule:evenodd;stroke-linejoin:round;stroke-miterlimit:1.41421;">
    <g transform="matrix(1.81422,0,0,2.41248,-8.11584,-30.4676)">
        <path d="M16.113,26.297L22.473,26.297L22.473,19.934L16.113,19.934L16.113,26.297ZM25.652,26.297L32.016,26.297L32.016,19.934L25.652,19.934L25.652,26.297ZM16.113,36.023L22.473,36.023L22.473,29.664L16.113,29.664L16.113,36.023ZM25.652,36.023L32.016,36.023L32.016,29.664L25.652,29.664L25.652,36.023ZM16.113,45.754L22.473,45.754L22.473,39.391L16.113,39.391L16.113,45.754ZM25.652,45.754L32.016,45.754L32.016,39.391L25.652,39.391L25.652,45.754ZM16.113,55.484L22.473,55.484L22.473,49.121L16.113,49.121L16.113,55.484ZM25.652,55.484L32.016,55.484L32.016,49.121L25.652,49.121L25.652,55.484ZM56.234,59.801L56.234,54.219C61.125,53.441 64.918,48.258 64.918,41.996C64.918,40.835 64.774,39.471 64.498,38.024C63.342,31.966 59.87,24.465 54.961,24.465C48.883,24.465 45.004,35.977 45.004,41.996C45.004,48.258 48.801,53.441 53.691,54.219L53.691,59.801L38.77,59.801L38.77,12.789L9.355,12.789L9.355,59.801L4.527,59.801L4.527,62.34L70.473,62.34L70.473,59.801L56.234,59.801ZM11.895,15.328L36.23,15.328L36.23,59.801L11.895,59.801L11.895,15.328ZM54.961,27.004C56.715,27.004 58.57,29.238 59.984,32.23C58.531,31.914 57.137,32.051 55.91,32.652C55.625,32.793 55.355,32.934 55.102,33.066C53.836,33.727 52.922,34.199 51.406,34.055C50.734,33.992 50.035,33.84 49.336,33.613C50.801,29.957 52.945,27.004 54.961,27.004ZM48.895,34.805C49.695,35.07 50.508,35.246 51.285,35.32C51.516,35.344 51.734,35.352 51.945,35.352C53.461,35.352 54.5,34.809 55.688,34.195C55.934,34.066 56.195,33.93 56.473,33.793C57.945,33.066 59.48,33.32 60.637,33.742C61.23,35.254 61.707,36.875 62.012,38.461C59.895,37.891 57.98,37.949 56.211,38.645C55.887,38.773 55.578,38.898 55.281,39.023C53.684,39.68 52.422,40.195 50.617,40.043C49.648,39.961 48.684,39.781 47.738,39.512C47.957,37.965 48.363,36.348 48.895,34.805ZM47.547,41.996C47.547,41.605 47.562,41.203 47.594,40.789C48.555,41.051 49.531,41.227 50.512,41.309C50.766,41.332 51.016,41.34 51.254,41.34C52.977,41.34 54.281,40.805 55.762,40.195C56.055,40.078 56.359,39.953 56.676,39.828C58.355,39.168 60.145,39.172 62.23,39.848C62.324,40.59 62.379,41.312 62.379,41.996C62.379,42.859 62.293,43.695 62.133,44.492C60.043,43.902 58.258,43.875 56.719,44.406C56.09,44.625 55.527,44.859 54.988,45.086C53.629,45.66 52.457,46.152 50.805,46.047C49.91,45.988 48.984,45.832 48.066,45.59C47.734,44.477 47.547,43.266 47.547,41.996ZM48.602,47.02C49.316,47.168 50.027,47.27 50.723,47.312C50.906,47.324 51.086,47.332 51.258,47.332C52.93,47.332 54.172,46.809 55.48,46.258C56.004,46.039 56.543,45.812 57.133,45.605C58.449,45.152 59.965,45.188 61.816,45.723C60.703,49.273 58.051,51.781 54.961,51.781C52.266,51.781 49.898,49.871 48.602,47.02Z" style="fill:rgb(78,78,78);"/>
        <clipPath id="_clip1">
            <path d="M16.113,26.297L22.473,26.297L22.473,19.934L16.113,19.934L16.113,26.297ZM25.652,26.297L32.016,26.297L32.016,19.934L25.652,19.934L25.652,26.297ZM16.113,36.023L22.473,36.023L22.473,29.664L16.113,29.664L16.113,36.023ZM25.652,36.023L32.016,36.023L32.016,29.664L25.652,29.664L25.652,36.023ZM16.113,45.754L22.473,45.754L22.473,39.391L16.113,39.391L16.113,45.754ZM25.652,45.754L32.016,45.754L32.016,39.391L25.652,39.391L25.652,45.754ZM16.113,55.484L22.473,55.484L22.473,49.121L16.113,49.121L16.113,55.484ZM25.652,55.484L32.016,55.484L32.016,49.121L25.652,49.121L25.652,55.484ZM56.234,59.801L56.234,54.219C61.125,53.441 64.918,48.258 64.918,41.996C64.918,40.835 64.774,39.471 64.498,38.024C63.342,31.966 59.87,24.465 54.961,24.465C48.883,24.465 45.004,35.977 45.004,41.996C45.004,48.258 48.801,53.441 53.691,54.219L53.691,59.801L38.77,59.801L38.77,12.789L9.355,12.789L9.355,59.801L4.527,59.801L4.527,62.34L70.473,62.34L70.473,59.801L56.234,59.801ZM11.895,15.328L36.23,15.328L36.23,59.801L11.895,59.801L11.895,15.328ZM54.961,27.004C56.715,27.004 58.57,29.238 59.984,32.23C58.531,31.914 57.137,32.051 55.91,32.652C55.625,32.793 55.355,32.934 55.102,33.066C53.836,33.727 52.922,34.199 51.406,34.055C50.734,33.992 50.035,33.84 49.336,33.613C50.801,29.957 52.945,27.004 54.961,27.004ZM48.895,34.805C49.695,35.07 50.508,35.246 51.285,35.32C51.516,35.344 51.734,35.352 51.945,35.352C53.461,35.352 54.5,34.809 55.688,34.195C55.934,34.066 56.195,33.93 56.473,33.793C57.945,33.066 59.48,33.32 60.637,33.742C61.23,35.254 61.707,36.875 62.012,38.461C59.895,37.891 57.98,37.949 56.211,38.645C55.887,38.773 55.578,38.898 55.281,39.023C53.684,39.68 52.422,40.195 50.617,40.043C49.648,39.961 48.684,39.781 47.738,39.512C47.957,37.965 48.363,36.348 48.895,34.805ZM47.547,41.996C47.547,41.605 47.562,41.203 47.594,40.789C48.555,41.051 49.531,41.227 50.512,41.309C50.766,41.332 51.016,41.34 51.254,41.34C52.977,41.34 54.281,40.805 55.762,40.195C56.055,40.078 56.359,39.953 56.676,39.828C58.355,39.168 60.145,39.172 62.23,39.848C62.324,40.59 62.379,41.312 62.379,41.996C62.379,42.859 62.293,43.695 62.133,44.492C60.043,43.902 58.258,43.875 56.719,44.406C56.09,44.625 55.527,44.859 54.988,45.086C53.629,45.66 52.457,46.152 50.805,46.047C49.91,45.988 48.984,45.832 48.066,45.59C47.734,44.477 47.547,43.266 47.547,41.996ZM48.602,47.02C49.316,47.168 50.027,47.27 50.723,47.312C50.906,47.324 51.086,47.332 51.258,47.332C52.93,47.332 54.172,46.809 55.48,46.258C56.004,46.039 56.543,45.812 57.133,45.605C58.449,45.152 59.965,45.188 61.816,45.723C60.703,49.273 58.051,51.781 54.961,51.781C52.266,51.781 49.898,49.871 48.602,47.02Z"/>
        </clipPath>
        <g clip-path="url(#_clip1)">
            <g transform="matrix(0.749117,0,0,0.520482,-79.015,-49.1946)">
                <rect x="139.65" y="170.216" width="8.691" height="12.157" style="fill:rgb(71,171,88);"/>
            </g>
        </g>
    </g>
</svg>
