<?xml version="1.0" standalone="no"?>
<!DOCTYPE svg PUBLIC "-//W3C//DTD SVG 1.1//EN" "http://www.w3.org/Graphics/SVG/1.1/DTD/svg11.dtd">
<svg width="100%" height="100%" viewBox="0 0 120 120" version="1.1" xmlns="http://www.w3.org/2000/svg" xmlns:xlink="http://www.w3.org/1999/xlink" xml:space="preserve" style="fill-rule:evenodd;clip-rule:evenodd;stroke-linejoin:round;stroke-miterlimit:1.41421;">
    <g id="Condo Tel" transform="matrix(1.69624,0,0,1.60994,-301.106,-205.839)">
        <g transform="matrix(1,0,0,1,175.436,127.661)">
            <path d="M64.062,74.531L10.938,74.531L10.938,0.469L64.062,17.031L64.062,74.531ZM14.062,71.406L60.938,71.406L60.938,19.375L14.062,4.688L14.062,71.406Z" style="fill:rgb(78,78,78);fill-rule:nonzero;"/>
        </g>
        <g transform="matrix(1,0,0,1,175.436,127.661)">
            <rect x="35.938" y="63.594" width="3.125" height="9.375" style="fill:rgb(71,171,88);fill-rule:nonzero;"/>
        </g>
        <g transform="matrix(1,0,0,1,175.436,127.661)">
            <rect x="21.719" y="24.688" width="6.25" height="3.125" style="fill:rgb(78,78,78);fill-rule:nonzero;"/>
        </g>
        <g transform="matrix(1,0,0,1,175.436,127.661)">
            <rect x="34.375" y="24.688" width="6.25" height="3.125" style="fill:rgb(78,78,78);fill-rule:nonzero;"/>
        </g>
        <g transform="matrix(1,0,0,1,175.436,127.661)">
            <rect x="47.031" y="24.688" width="6.25" height="3.125" style="fill:rgb(78,78,78);fill-rule:nonzero;"/>
        </g>
        <g transform="matrix(1,0,0,1,175.436,127.661)">
            <rect x="21.719" y="34.062" width="6.25" height="3.125" style="fill:rgb(78,78,78);fill-rule:nonzero;"/>
        </g>
        <g transform="matrix(1,0,0,1,175.436,127.661)">
            <rect x="34.375" y="34.062" width="6.25" height="3.125" style="fill:rgb(78,78,78);fill-rule:nonzero;"/>
        </g>
        <g transform="matrix(1,0,0,1,175.436,127.661)">
            <rect x="47.031" y="34.062" width="6.25" height="3.125" style="fill:rgb(78,78,78);fill-rule:nonzero;"/>
        </g>
        <g transform="matrix(1,0,0,1,175.436,127.661)">
            <rect x="21.719" y="43.594" width="6.25" height="3.125" style="fill:rgb(78,78,78);fill-rule:nonzero;"/>
        </g>
        <g transform="matrix(1,0,0,1,175.436,127.661)">
            <rect x="34.375" y="43.594" width="6.25" height="3.125" style="fill:rgb(78,78,78);fill-rule:nonzero;"/>
        </g>
        <g transform="matrix(1,0,0,1,175.436,127.661)">
            <rect x="47.031" y="43.594" width="6.25" height="3.125" style="fill:rgb(78,78,78);fill-rule:nonzero;"/>
        </g>
        <g transform="matrix(1,0,0,1,175.436,127.661)">
            <rect x="21.719" y="53.125" width="6.25" height="3.125" style="fill:rgb(78,78,78);fill-rule:nonzero;"/>
        </g>
        <g transform="matrix(1,0,0,1,175.436,127.661)">
            <rect x="34.375" y="53.125" width="6.25" height="3.125" style="fill:rgb(78,78,78);fill-rule:nonzero;"/>
        </g>
        <g transform="matrix(1,0,0,1,175.436,127.661)">
            <rect x="47.031" y="53.125" width="6.25" height="3.125" style="fill:rgb(78,78,78);fill-rule:nonzero;"/>
        </g>
        <g transform="matrix(1,0,0,1,175.436,127.661)">
            <rect x="2.344" y="71.406" width="70.312" height="3.125" style="fill:rgb(78,78,78);fill-rule:nonzero;"/>
        </g>
    </g>
</svg>
