<?xml version="1.0" standalone="no"?>
<!DOCTYPE svg PUBLIC "-//W3C//DTD SVG 1.1//EN" "http://www.w3.org/Graphics/SVG/1.1/DTD/svg11.dtd">
<svg width="100%" height="100%" viewBox="0 0 120 120" version="1.1" xmlns="http://www.w3.org/2000/svg" xmlns:xlink="http://www.w3.org/1999/xlink" xml:space="preserve" style="fill-rule:evenodd;clip-rule:evenodd;stroke-linejoin:round;stroke-miterlimit:1.41421;">
    <g transform="matrix(1.33359,0,0,1.21511,-561.79,-162.953)">
        <g transform="matrix(1.21911,0,0,1.33706,420.492,133.354)">
            <path d="M54.375,34.375L20.625,34.375L20.312,33.281C19.688,31.094 19.375,28.75 19.375,26.562C19.375,15.156 35.781,2.031 36.406,1.406L37.5,0.625L38.438,1.406C39.062,2.031 55.469,15 55.469,26.562C55.469,28.75 55.156,31.094 54.531,33.281L54.375,34.375ZM23.125,31.25L52.031,31.25C52.344,29.688 52.5,27.969 52.5,26.406C52.5,17.812 41.094,7.5 37.5,4.531C34.062,7.5 22.656,17.812 22.656,26.406C22.656,28.125 22.812,29.688 23.125,31.25Z" style="fill:rgb(78,78,78);fill-rule:nonzero;"/>
        </g>
        <g transform="matrix(1.21911,0,0,1.33706,420.492,133.354)">
            <path d="M45.312,72.812L42.188,72.812L42.188,63.281C42.188,61.094 39.531,58.125 37.5,56.094C35.312,57.969 32.812,61.094 32.812,63.281L32.812,72.812L29.688,72.812L29.688,63.281C29.688,58.438 35.938,53.438 36.562,52.812L37.5,52.031L38.438,52.812C39.219,53.438 45.312,58.438 45.312,63.281L45.312,72.812Z" style="fill:rgb(71,171,88);fill-rule:nonzero;"/>
        </g>
        <g transform="matrix(1.21911,0,0,1.33706,420.492,133.354)">
            <path d="M74.219,74.375L0.781,74.375L0.781,40.469L74.219,40.469L74.219,74.375ZM3.906,71.25L71.094,71.25L71.094,43.594L3.906,43.594L3.906,71.25Z" style="fill:rgb(78,78,78);fill-rule:nonzero;"/>
        </g>
        <g transform="matrix(1.21911,0,0,1.33706,420.492,133.354)">
            <rect x="51.562" y="32.812" width="3.125" height="9.219" style="fill:rgb(78,78,78);fill-rule:nonzero;"/>
        </g>
        <g transform="matrix(1.21911,0,0,1.33706,420.492,133.354)">
            <rect x="20.312" y="32.812" width="3.125" height="9.219" style="fill:rgb(78,78,78);fill-rule:nonzero;"/>
        </g>
        <g transform="matrix(1.21911,0,0,1.33706,420.492,133.354)">
            <rect x="60" y="46.719" width="3.125" height="7.812" style="fill:rgb(78,78,78);fill-rule:nonzero;"/>
        </g>
        <g transform="matrix(1.21911,0,0,1.33706,420.492,133.354)">
            <rect x="11.875" y="46.719" width="3.125" height="7.812" style="fill:rgb(78,78,78);fill-rule:nonzero;"/>
        </g>
        <g transform="matrix(1.21911,0,0,1.33706,420.492,133.354)">
            <rect x="60" y="58.75" width="3.125" height="7.812" style="fill:rgb(78,78,78);fill-rule:nonzero;"/>
        </g>
        <g transform="matrix(1.21911,0,0,1.33706,420.492,133.354)">
            <rect x="11.875" y="58.75" width="3.125" height="7.812" style="fill:rgb(78,78,78);fill-rule:nonzero;"/>
        </g>
        <g transform="matrix(1.21911,0,0,1.33706,420.492,133.354)">
            <path d="M74.219,43.594L63.281,43.594L63.281,24.531L68.75,0.625L74.219,24.844L74.219,43.594ZM66.406,40.469L71.094,40.469L71.094,25L68.75,14.688L66.406,25L66.406,40.469Z" style="fill:rgb(78,78,78);fill-rule:nonzero;"/>
        </g>
        <g transform="matrix(1.21911,0,0,1.33706,420.492,133.354)">
            <path d="M11.719,43.594L0.781,43.594L0.781,24.531L6.25,0.625L11.719,24.844L11.719,43.594ZM3.906,40.469L8.594,40.469L8.594,25L6.25,14.688L3.906,25L3.906,40.469Z" style="fill:rgb(78,78,78);fill-rule:nonzero;"/>
        </g>
    </g>
</svg>
